<?xml version="1.0" encoding="UTF-8"?>
<svg version="1.1" xmlns="http://www.w3.org/2000/svg" width="32" height="32">
<path d="M0 0 C3.0625 0.3125 3.0625 0.3125 4.9375 1.625 C6.0625 3.3125 6.0625 3.3125 6.0625 6.3125 C7.7125 6.3125 9.3625 6.3125 11.0625 6.3125 C12.59464888 9.37679776 12.29188548 11.9290642 12.0625 15.3125 C11.08060813 16.98989862 10.08116229 18.65717377 9.0625 20.3125 C8.81113967 23.52166171 8.81113967 23.52166171 9.0625 26.3125 C8.4025 26.6425 7.7425 26.9725 7.0625 27.3125 C6.94132812 26.68601562 6.82015625 26.05953125 6.6953125 25.4140625 C6.52773438 24.59679687 6.36015625 23.77953125 6.1875 22.9375 C6.02507813 22.12539063 5.86265625 21.31328125 5.6953125 20.4765625 C5.19591068 18.12576077 5.19591068 18.12576077 3.0625 16.3125 C0.46231184 20.21278225 0.91164486 23.78684569 1.0625 28.3125 C0.4025 28.3125 -0.2575 28.3125 -0.9375 28.3125 C-1.2675 24.6825 -1.5975 21.0525 -1.9375 17.3125 C-2.5975 17.3125 -3.2575 17.3125 -3.9375 17.3125 C-6.22763653 20.7477048 -6.11592973 22.297831 -5.9375 26.3125 C-6.5975 26.6425 -7.2575 26.9725 -7.9375 27.3125 C-8.05867187 26.69761719 -8.17984375 26.08273438 -8.3046875 25.44921875 C-8.47226563 24.64097656 -8.63984375 23.83273438 -8.8125 23 C-9.05613281 21.79923828 -9.05613281 21.79923828 -9.3046875 20.57421875 C-9.88228999 18.05948882 -9.88228999 18.05948882 -11.9375 15.3125 C-12.27083333 8.97916667 -12.27083333 8.97916667 -10.9375 6.3125 C-9.2875 6.3125 -7.6375 6.3125 -5.9375 6.3125 C-5.751875 5.384375 -5.751875 5.384375 -5.5625 4.4375 C-4.5547783 1.01124621 -3.5238816 0.37488102 0 0 Z " fill="#C32524" transform="translate(15.9375,1.6875)"/>
<path d="M0 0 C1.65 0 3.3 0 5 0 C6.25567439 2.95566433 7.36088081 5.84701197 8 9 C6.6875 11.6875 6.6875 11.6875 5 14 C4.74863967 17.20916171 4.74863967 17.20916171 5 20 C4.34 20.33 3.68 20.66 3 21 C2.87882813 20.38511719 2.75765625 19.77023438 2.6328125 19.13671875 C2.46523437 18.32847656 2.29765625 17.52023438 2.125 16.6875 C1.96257813 15.88699219 1.80015625 15.08648437 1.6328125 14.26171875 C1.05521001 11.74698882 1.05521001 11.74698882 -1 9 C-1.33333333 2.66666667 -1.33333333 2.66666667 0 0 Z " fill="#3A9ED6" transform="translate(5,8)"/>
<path d="M0 0 C1.65 0 3.3 0 5 0 C6.53214888 3.06429776 6.22938548 5.6165642 6 9 C5.01810813 10.67739862 4.01866229 12.34467377 3 14 C2.74863967 17.20916171 2.74863967 17.20916171 3 20 C2.34 20.33 1.68 20.66 1 21 C0.49978606 18.77089128 0.00368213 16.54126077 -0.48046875 14.30859375 C-0.85329029 12.65192059 -1.28349458 11.00776899 -1.75 9.375 C-2.10935775 5.96110135 -1.07317057 3.21951171 0 0 Z " fill="#FBB21D" transform="translate(22,8)"/>
<path d="M0 0 C0.33 0 0.66 0 1 0 C1.30611442 5.20394513 0.68520134 7.63654783 -2 12 C-2.25136033 15.20916171 -2.25136033 15.20916171 -2 18 C-2.66 18.33 -3.32 18.66 -4 19 C-4.66 15.7 -5.32 12.4 -6 9 C-4.68 8.67 -3.36 8.34 -2 8 C-1.34 5.36 -0.68 2.72 0 0 Z " fill="#BE8632" transform="translate(27,10)"/>
<path d="M0 0 C0.66 0.33 1.32 0.66 2 1 C1.505 1.70125 1.01 2.4025 0.5 3.125 C-1.1936681 6.37119719 -1.25162315 8.39340156 -1 12 C-1.99 12.495 -1.99 12.495 -3 13 C-3.66 9.7 -4.32 6.4 -5 3 C-3.68 2.67 -2.36 2.34 -1 2 C-0.67 1.34 -0.34 0.68 0 0 Z " fill="#387195" transform="translate(11,16)"/>
</svg>
